<?xml version="1.0" standalone="no"?>
<!DOCTYPE svg PUBLIC "-//W3C//DTD SVG 20010904//EN"
 "http://www.w3.org/TR/2001/REC-SVG-20010904/DTD/svg10.dtd">
<svg version="1.0" xmlns="http://www.w3.org/2000/svg"
 width="32.000000pt" height="32.000000pt" viewBox="0 0 32.000000 32.000000"
 preserveAspectRatio="xMidYMid meet">

<g transform="translate(0.000000,32.000000) scale(0.100000,-0.100000)"
fill="#000000" stroke="none">
<path d="M0 160 l0 -160 160 0 160 0 0 160 0 160 -160 0 -160 0 0 -160z m142
111 c-9 -16 -18 -28 -20 -27 -5 6 21 56 29 56 5 0 0 -13 -9 -29z m-72 -12 c12
-16 19 -33 16 -36 -3 -4 -6 0 -6 8 0 12 -2 11 -11 -1 -9 -13 -10 -13 -6 2 7
21 -18 46 -26 26 -3 -7 -6 -3 -6 10 -1 31 14 28 39 -9z m72 -35 c-25 -20 -32
-33 -30 -53 2 -16 -2 -25 -9 -24 -7 2 -10 -4 -7 -12 4 -8 4 -15 0 -15 -9 0
-56 85 -55 101 0 8 7 -3 16 -23 8 -21 19 -38 25 -38 5 0 7 4 4 9 -8 13 4 42
15 35 5 -3 9 3 9 12 0 10 3 14 6 11 4 -3 16 0 28 8 34 25 33 17 -2 -11z m118
7 c0 -6 -10 -20 -22 -33 -13 -13 -20 -19 -15 -14 16 21 6 28 -15 10 l-21 -19
18 28 c10 16 24 26 31 23 8 -3 14 -1 14 4 0 6 2 10 5 10 3 0 5 -4 5 -9z m-104
-36 c-3 -20 -24 -40 -32 -32 -4 4 1 16 11 27 22 24 24 25 21 5z m6 -85 c-9
-17 -25 -33 -34 -36 -10 -3 -18 -11 -18 -17 0 -7 -5 -4 -11 7 -9 14 -7 22 5
35 16 15 17 15 10 -2 -5 -13 -2 -16 10 -11 9 3 13 11 9 17 -3 5 -1 7 4 4 6 -4
14 0 17 9 5 12 2 15 -11 10 -16 -5 -16 -4 1 9 28 21 37 9 18 -25z"/>
</g>
</svg>
